{
    "asset" : {
        "generator" : "Khronos glTF Blender I/O v3.3.27",
        "version" : "2.0"
    },
    "scene" : 0,
    "scenes" : [
        {
            "name" : "Scene",
            "nodes" : [
                0
            ]
        }
    ],
    "nodes" : [
        {
            "mesh" : 0,
            "name" : "Text"
        }
    ],
    "meshes" : [
        {
            "name" : "Text.002",
            "primitives" : [
                {
                    "attributes" : {
                        "POSITION" : 0,
                        "NORMAL" : 1,
                        "TEXCOORD_0" : 2
                    },
                    "indices" : 3
                }
            ]
        }
    ],
    "accessors" : [
        {
            "bufferView" : 0,
            "componentType" : 5126,
            "count" : 3033,
            "max" : [
                0.8380231857299805,
                0.10000000894069672,
                0.008090046234428883
            ],
            "min" : [
                -0.8330988883972168,
                -0.10000000894069672,
                -0.4550870656967163
            ],
            "type" : "VEC3"
        },
        {
            "bufferView" : 1,
            "componentType" : 5126,
            "count" : 3033,
            "type" : "VEC3"
        },
        {
            "bufferView" : 2,
            "componentType" : 5126,
            "count" : 3033,
            "type" : "VEC2"
        },
        {
            "bufferView" : 3,
            "componentType" : 5123,
            "count" : 8961,
            "type" : "SCALAR"
        }
    ],
    "bufferViews" : [
        {
            "buffer" : 0,
            "byteLength" : 36396,
            "byteOffset" : 0,
            "target" : 34962
        },
        {
            "buffer" : 0,
            "byteLength" : 36396,
            "byteOffset" : 36396,
            "target" : 34962
        },
        {
            "buffer" : 0,
            "byteLength" : 24264,
            "byteOffset" : 72792,
            "target" : 34962
        },
        {
            "buffer" : 0,
            "byteLength" : 17922,
            "byteOffset" : 97056,
            "target" : 34963
        }
    ],
    "buffers" : [
        {
            "byteLength" : 114980,
            "uri" : "text.bin"
        }
    ]
}
